<svg id="visual" viewBox="0 0 900 600" width="900" height="600" xmlns="http://www.w3.org/2000/svg" xmlns:xlink="http://www.w3.org/1999/xlink" version="1.1"><rect x="0" y="0" width="900" height="600" fill="#087e8b"></rect><path d="M197 0L177.5 25C158 50 119 100 107.8 150C96.7 200 113.3 250 126.7 300C140 350 150 400 146.7 450C143.3 500 126.7 550 118.3 575L110 600L0 600L0 575C0 550 0 500 0 450C0 400 0 350 0 300C0 250 0 200 0 150C0 100 0 50 0 25L0 0Z" fill="#c2aff0" stroke-linecap="round" stroke-linejoin="miter"></path></svg>